<?xml version="1.0" standalone="no"?><!DOCTYPE svg PUBLIC "-//W3C//DTD SVG 1.1//EN" "http://www.w3.org/Graphics/SVG/1.1/DTD/svg11.dtd"><svg t="1584080008106" class="icon" viewBox="0 0 1024 1024" version="1.1" xmlns="http://www.w3.org/2000/svg" p-id="38633" xmlns:xlink="http://www.w3.org/1999/xlink" width="200" height="200"><defs><style type="text/css"></style></defs><path d="M921.6 0H102.4a102.4 102.4 0 0 0-102.4 102.4v819.2a102.4 102.4 0 0 0 102.4 102.4h819.2a102.4 102.4 0 0 0 102.4-102.4V102.4a102.4 102.4 0 0 0-102.4-102.4z m-131.072 444.416l-343.04 470.528a16.384 16.384 0 0 1-29.696-12.8l51.2-299.008H246.784a16.384 16.384 0 0 1-13.312-26.112l352.768-468.48a16.384 16.384 0 0 1 28.672 13.312l-62.976 296.448h224.768a16.384 16.384 0 0 1 13.824 26.112z" fill="#F44F62" p-id="38634"></path></svg>