<?xml version="1.0" standalone="no"?><!DOCTYPE svg PUBLIC "-//W3C//DTD SVG 1.1//EN" "http://www.w3.org/Graphics/SVG/1.1/DTD/svg11.dtd"><svg t="1584079876996" class="icon" viewBox="0 0 1024 1024" version="1.1" xmlns="http://www.w3.org/2000/svg" p-id="35106" xmlns:xlink="http://www.w3.org/1999/xlink" width="200" height="200"><defs><style type="text/css"></style></defs><path d="M0 512c0 282.624 229.376 512 512 512s512-229.376 512-512S794.624 0 512 0 0 229.376 0 512z" fill="#FF9900" p-id="35107"></path><path d="M512 607.232c-22.016 0-36.352-14.848-36.352-36.352V278.016c0-22.016 14.848-36.352 36.352-36.352s36.352 14.848 36.352 36.352v292.352c0 14.848-14.336 36.864-36.352 36.864zM467.968 701.952c0 24.064 19.456 44.032 44.032 44.032 24.064 0 44.032-19.456 44.032-44.032 0-24.064-19.456-44.032-44.032-44.032-24.064 0.512-44.032 19.968-44.032 44.032z" fill="#FFFFFF" p-id="35108"></path></svg>